<svg width="81" height="15" viewBox="0 0 81 15" fill="none" xmlns="http://www.w3.org/2000/svg">
<path d="M74.2578 14.7578C73.8125 14.7578 73.3594 14.7031 73.0938 14.6562V12.9609C73.2578 12.9922 73.5234 13.0391 73.8594 13.0391C74.5391 13.0391 74.9141 12.8438 75.1172 12.2734L75.2188 12L72.2578 3.625H74.7656L76.5312 10.1719H76.5938L78.3672 3.625H80.7734L77.8984 12.1484C77.2422 14.125 76.1172 14.7578 74.2578 14.7578Z" fill="#BF9BFF"/>
<path d="M68.2031 12.1719C65.8828 12.1719 64.5938 11.1016 64.4141 9.51562L64.4062 9.44531H66.6328L66.6484 9.51562C66.7969 10.1719 67.2891 10.5547 68.2031 10.5547C69.0625 10.5547 69.5859 10.2188 69.5859 9.67969V9.67188C69.5859 9.22656 69.3047 8.96875 68.4844 8.78906L67.0625 8.49219C65.4375 8.14844 64.6172 7.33594 64.6172 6.08594V6.07812C64.6172 4.48438 65.9922 3.45312 68.125 3.45312C70.3516 3.45312 71.5938 4.63281 71.6484 6.10156V6.17969H69.5469L69.5391 6.11719C69.4609 5.51562 68.9688 5.0625 68.125 5.0625C67.3359 5.0625 66.8438 5.41406 66.8438 5.95312V5.96094C66.8438 6.39062 67.1328 6.67188 67.9766 6.85156L69.3984 7.15625C71.1484 7.52344 71.8672 8.21094 71.8672 9.44531V9.45312C71.8672 11.0938 70.3594 12.1719 68.2031 12.1719Z" fill="#BF9BFF"/>
<path d="M58.4844 12.1328C56.8047 12.1328 55.6719 11.0781 55.6719 9.60156V9.58594C55.6719 8.0625 56.8516 7.17188 58.9297 7.03906L61 6.91406V6.39844C61 5.65625 60.5156 5.19531 59.625 5.19531C58.7734 5.19531 58.2578 5.59375 58.1484 6.13281L58.1328 6.20312H56.0469L56.0547 6.10938C56.1797 4.5625 57.5078 3.45312 59.7188 3.45312C61.8828 3.45312 63.2812 4.57031 63.2812 6.25781V12H61V10.75H60.9531C60.4766 11.6094 59.5859 12.1328 58.4844 12.1328ZM57.9297 9.48438C57.9297 10.1016 58.4375 10.4688 59.2266 10.4688C60.25 10.4688 61 9.8125 61 8.9375V8.33594L59.2734 8.44531C58.3906 8.5 57.9297 8.875 57.9297 9.46875V9.48438Z" fill="#BF9BFF"/>
<path d="M50.9141 12.1719C48.3516 12.1719 46.7969 10.5078 46.7969 7.82812V7.82031C46.7969 5.15625 48.3672 3.45312 50.8203 3.45312C53.2734 3.45312 54.8125 5.11719 54.8125 7.64844V8.35156H49.0469C49.0703 9.6875 49.7969 10.4688 50.9609 10.4688C51.8984 10.4688 52.4688 9.95312 52.6328 9.48438L52.6484 9.4375H54.7422L54.7188 9.52344C54.4609 10.7578 53.3047 12.1719 50.9141 12.1719ZM50.8594 5.15625C49.9219 5.15625 49.2188 5.78125 49.0703 6.91406H52.625C52.4844 5.75781 51.8047 5.15625 50.8594 5.15625Z" fill="#BF9BFF"/>
<path d="M41.5547 12V3.625H43.8359V5.08594H43.8828C44.1328 4.05469 44.8125 3.45312 45.7891 3.45312C46.0391 3.45312 46.2734 3.49219 46.4453 3.53906V5.54688C46.2578 5.46875 45.9453 5.42188 45.6172 5.42188C44.4922 5.42188 43.8359 6.09375 43.8359 7.3125V12H41.5547Z" fill="white"/>
<path d="M35.1875 12.1719C33.3438 12.1719 32.2969 10.9922 32.2969 9.03125V3.625H34.5781V8.55469C34.5781 9.64844 35.0938 10.2812 36.1172 10.2812C37.1406 10.2812 37.7891 9.53125 37.7891 8.4375V3.625H40.0703V12H37.7891V10.6172H37.7422C37.3125 11.5781 36.4531 12.1719 35.1875 12.1719Z" fill="white"/>
<path d="M29.9766 12.1719C28.1172 12.1719 27.2422 11.4531 27.2422 9.65625V5.34375H26.0781V3.625H27.2422V1.57812H29.5469V3.625H31.0781V5.34375H29.5469V9.40625C29.5469 10.1875 29.8984 10.4531 30.5859 10.4531C30.7891 10.4531 30.9375 10.4297 31.0781 10.4141V12.0859C30.8203 12.125 30.4531 12.1719 29.9766 12.1719Z" fill="white"/>
<path d="M21.7578 12.1719C19.2031 12.1719 17.625 10.5078 17.625 7.80469V7.79688C17.625 5.11719 19.2266 3.45312 21.7344 3.45312C24.0078 3.45312 25.4531 4.85156 25.5391 6.66406V6.71875H23.4219L23.4062 6.64844C23.2656 5.85156 22.7109 5.24219 21.7656 5.24219C20.6484 5.24219 19.9453 6.20312 19.9453 7.80469V7.8125C19.9453 9.45312 20.6484 10.3828 21.7734 10.3828C22.6875 10.3828 23.2578 9.82031 23.4141 8.97656L23.4219 8.90625H25.5469V8.95312C25.4375 10.7812 23.9922 12.1719 21.7578 12.1719Z" fill="white"/>
<path d="M11.6562 12.1328C9.97656 12.1328 8.84375 11.0781 8.84375 9.60156V9.58594C8.84375 8.0625 10.0234 7.17188 12.1016 7.03906L14.1719 6.91406V6.39844C14.1719 5.65625 13.6875 5.19531 12.7969 5.19531C11.9453 5.19531 11.4297 5.59375 11.3203 6.13281L11.3047 6.20312H9.21875L9.22656 6.10938C9.35156 4.5625 10.6797 3.45312 12.8906 3.45312C15.0547 3.45312 16.4531 4.57031 16.4531 6.25781V12H14.1719V10.75H14.125C13.6484 11.6094 12.7578 12.1328 11.6562 12.1328ZM11.1016 9.48438C11.1016 10.1016 11.6094 10.4688 12.3984 10.4688C13.4219 10.4688 14.1719 9.8125 14.1719 8.9375V8.33594L12.4453 8.44531C11.5625 8.5 11.1016 8.875 11.1016 9.46875V9.48438Z" fill="white"/>
<path d="M0.9375 12V0.726562H8.32031V2.67188H3.29688V5.69531H7.88281V7.5625H3.29688V12H0.9375Z" fill="white"/>
</svg>
