<svg width="9" height="11" viewBox="0 0 9 11" fill="none" xmlns="http://www.w3.org/2000/svg">
<path d="M2.01863 5.24845C2.01863 5.53831 2.25361 5.77329 2.54348 5.77329H5.53106C5.82092 5.77329 6.0559 5.53831 6.0559 5.24845C6.0559 4.95858 5.82092 4.7236 5.53106 4.7236H2.54348C2.25361 4.7236 2.01863 4.95858 2.01863 5.24845ZM2.01863 3.14907C2.01863 3.43893 2.25361 3.67391 2.54348 3.67391H5.53106C5.82092 3.67391 6.0559 3.43893 6.0559 3.14907C6.0559 2.8592 5.82092 2.62422 5.53106 2.62422H2.54348C2.25361 2.62422 2.01863 2.8592 2.01863 3.14907ZM4.54193 7.34783C4.54193 7.63769 4.77691 7.87267 5.06677 7.87267H5.53106C5.82092 7.87267 6.0559 7.63769 6.0559 7.34783C6.0559 7.05796 5.82092 6.82298 5.53106 6.82298H5.06677C4.77691 6.82298 4.54193 7.05796 4.54193 7.34783ZM7.62539 0C7.30846 0.0031037 7.00013 0.10755 6.74224 0.299161C6.65273 0.373691 6.54149 0.414299 6.42683 0.414299C6.31216 0.414299 6.20092 0.373691 6.11141 0.299161C5.85403 0.106921 5.54514 0.00351573 5.22826 0.00351573C4.91138 0.00351573 4.60249 0.106921 4.34511 0.299161C4.25598 0.369706 4.14899 0.41166 4.03727 0.419876C3.92732 0.414699 3.82158 0.374378 3.73447 0.30441C3.47671 0.108002 3.16581 0.00144657 2.84627 0C2.52902 0.00102388 2.22009 0.105671 1.96312 0.299161C1.87361 0.373691 1.76237 0.414299 1.64771 0.414299C1.53305 0.414299 1.42181 0.373691 1.3323 0.299161C1.07441 0.10755 0.766074 0.0031037 0.449146 0H0V10.4969H0.449146C0.766074 10.4938 1.07441 10.3893 1.3323 10.1977C1.42181 10.1232 1.53305 10.0826 1.64771 10.0826C1.76237 10.0826 1.87361 10.1232 1.96312 10.1977C2.2205 10.39 2.52939 10.4934 2.84627 10.4934C3.16315 10.4934 3.47205 10.39 3.72943 10.1977C3.81855 10.1272 3.92554 10.0852 4.03727 10.077C4.14722 10.0822 4.25296 10.1225 4.34006 10.1925C4.59503 10.3868 4.90209 10.4932 5.21817 10.4969C5.53542 10.4959 5.84435 10.3912 6.10132 10.1977C6.19083 10.1232 6.30207 10.0826 6.41673 10.0826C6.53139 10.0826 6.64264 10.1232 6.73214 10.1977C6.99003 10.3893 7.29837 10.4938 7.61529 10.4969H8.07453V0H7.62539ZM7.06522 9.18478C6.82282 9.06824 6.5551 9.02044 6.2892 9.04625C6.02331 9.07206 5.76871 9.17056 5.55124 9.33174C5.46087 9.40282 5.3516 9.44315 5.23835 9.4472C5.128 9.4442 5.02163 9.40364 4.93556 9.33174C4.67502 9.13321 4.36025 9.02655 4.03727 9.02733C3.71834 9.03258 3.40851 9.13876 3.14907 9.33174C3.05997 9.40496 2.94974 9.44479 2.83618 9.44479C2.72262 9.44479 2.61239 9.40496 2.52329 9.33174C2.30582 9.17056 2.05122 9.07206 1.78533 9.04625C1.51944 9.02044 1.25171 9.06824 1.00932 9.18478V1.31211C1.20772 1.41212 1.42473 1.46586 1.64519 1.46957C1.96066 1.46221 2.26667 1.35612 2.52329 1.16516C2.61645 1.092 2.72956 1.05156 2.84627 1.04969C2.95663 1.0527 3.063 1.09326 3.14907 1.16516C3.40683 1.36156 3.71773 1.46812 4.03727 1.46957C4.3562 1.46432 4.66602 1.35813 4.92547 1.16516C5.01456 1.09193 5.1248 1.0521 5.23835 1.0521C5.35191 1.0521 5.46215 1.09193 5.55124 1.16516C5.81069 1.35813 6.12051 1.46432 6.43944 1.46957C6.65648 1.46435 6.86989 1.41065 7.06522 1.31211V9.18478Z" fill="#B491F2"/>
</svg>
