<svg width="7" height="23" viewBox="0 0 7 23" fill="none" xmlns="http://www.w3.org/2000/svg">
<path d="M5.93159 9.30332C6.46594 8.76897 6.7574 7.99173 6.7574 7.2145L6.51451 1.43382C6.51451 1.14236 6.27163 0.899476 5.98017 0.899476C5.6887 0.899476 5.44582 1.14236 5.44582 1.43382L5.10578 6.34011C5.10578 6.53442 4.91147 6.72873 4.66858 6.77731C4.47428 6.77731 4.27997 6.583 4.23139 6.34011L3.93993 1.38525C3.93993 1.09378 3.69704 0.850899 3.40558 0.850899C3.11412 0.850899 2.87123 1.09378 2.87123 1.38525L2.53119 6.38869C2.53119 6.583 2.33688 6.77731 2.094 6.82588C1.89969 6.82588 1.70538 6.63157 1.6568 6.38869L1.36534 1.43382C1.36534 1.14236 1.12245 0.899476 0.830992 0.899476C0.539529 0.899476 0.296644 1.14236 0.296644 1.43382L0.00518086 7.16592C-0.0433959 7.99173 0.296644 8.81754 0.928146 9.35189L1.75396 10.0805C2.04542 10.372 2.23973 10.7606 2.19115 11.1978L1.6568 20.2817C1.55965 21.3504 2.43404 22.2248 3.50273 22.2248C4.57143 22.2248 5.39724 21.3019 5.34866 20.2817L4.81431 11.1007C4.81431 10.7121 4.91147 10.3234 5.20293 10.032L5.93159 9.30332Z" fill="white"/>
</svg>
