<svg width="70" height="67" viewBox="0 0 70 67" fill="none" xmlns="http://www.w3.org/2000/svg">
<path d="M53.6666 14.3571H16.3333V2.39286C16.3333 1.07078 17.3774 0 18.6666 0H51.3333C51.9516 0 52.5466 0.251246 52.9841 0.699909C53.4216 1.14857 53.6666 1.75874 53.6666 2.39283L53.6666 14.3571ZM70 21.5357V52.6429C70 53.277 69.755 53.8872 69.3175 54.3358C68.88 54.7845 68.285 55.0357 67.6667 55.0357H58.3333V47.8571C58.3304 46.538 57.2863 45.4673 56 45.4643H14C12.7137 45.4673 11.6696 46.538 11.6667 47.8571V55.0357H2.33333C1.04414 55.0357 0 53.9649 0 52.6429V21.5357C0.00291648 20.2166 1.04705 19.1458 2.33333 19.1428H67.6667C68.9529 19.1458 69.9971 20.2166 70 21.5357ZM58.3333 32.3032C58.3333 30.8526 57.4817 29.5424 56.1721 28.9861C54.8654 28.4328 53.3604 28.7379 52.3571 29.7638C51.3567 30.7928 51.0591 32.3361 51.5987 33.6761C52.1412 35.0191 53.4187 35.8925 54.8333 35.8925C55.7608 35.8925 56.6533 35.5156 57.3096 34.8426C57.9658 34.1696 58.3333 33.2544 58.3333 32.3032ZM16.3333 64.6072C16.3333 65.2413 16.5783 65.8515 17.0158 66.3001C17.4533 66.7488 18.0483 67 18.6666 67H51.3333C51.9516 67 52.5466 66.7488 52.9841 66.3001C53.4216 65.8514 53.6666 65.2413 53.6666 64.6072V50.25H16.3332L16.3333 64.6072Z" fill="white"/>
</svg>
