<svg width="20" height="20" viewBox="0 0 20 20" fill="none" xmlns="http://www.w3.org/2000/svg">
<path d="M15.2219 2.61041C13.5385 0.926785 11.2972 0 8.91529 0C6.53339 0 4.29223 0.926736 2.60872 2.61041C-0.869573 6.0893 -0.869573 11.7466 2.60872 15.2208C4.34543 16.9578 6.63021 17.8312 8.91529 17.8312C10.8946 17.8312 12.8739 17.1762 14.4988 15.871L18.6271 20L20 18.6269L15.8717 14.4979C18.6806 11.0046 18.4672 5.85653 15.2219 2.61041ZM3.98175 13.8525C1.26027 11.1305 1.26027 6.70539 3.98175 3.98344C5.30126 2.66854 7.05246 1.94074 8.91529 1.94074C10.7781 1.94074 12.5294 2.66854 13.8488 3.98344C16.5703 6.70539 16.5703 11.1305 13.8488 13.8525C11.1274 16.5744 6.70299 16.5744 3.98151 13.8525H3.98175Z" fill="white"/>
</svg>
